<?xml version="1.0" standalone="no"?>
<svg xmlns:xlink="http://www.w3.org/1999/xlink" id="wave" style="transform:rotate(180deg); transition: 0.3s" viewBox="0 0 1440 490" version="1.1" xmlns="http://www.w3.org/2000/svg"><defs><linearGradient id="sw-gradient-0" x1="0" x2="0" y1="1" y2="0"><stop stop-color="rgba(199, 216, 223, 1)" offset="0%"/><stop stop-color="rgba(115, 136, 146, 1)" offset="100%"/></linearGradient></defs><path style="transform:translate(0, 0px); opacity:1" fill="url(#sw-gradient-0)" d="M0,147L80,187.8C160,229,320,310,480,302.2C640,294,800,196,960,204.2C1120,212,1280,327,1440,383.8C1600,441,1760,441,1920,416.5C2080,392,2240,343,2400,318.5C2560,294,2720,294,2880,310.3C3040,327,3200,359,3360,383.8C3520,408,3680,425,3840,408.3C4000,392,4160,343,4320,310.3C4480,278,4640,261,4800,220.5C4960,180,5120,114,5280,73.5C5440,33,5600,16,5760,57.2C5920,98,6080,196,6240,228.7C6400,261,6560,229,6720,236.8C6880,245,7040,294,7200,294C7360,294,7520,245,7680,236.8C7840,229,8000,261,8160,277.7C8320,294,8480,294,8640,253.2C8800,212,8960,131,9120,81.7C9280,33,9440,16,9600,32.7C9760,49,9920,98,10080,138.8C10240,180,10400,212,10560,212.3C10720,212,10880,180,11040,171.5C11200,163,11360,180,11440,187.8L11520,196L11520,490L11440,490C11360,490,11200,490,11040,490C10880,490,10720,490,10560,490C10400,490,10240,490,10080,490C9920,490,9760,490,9600,490C9440,490,9280,490,9120,490C8960,490,8800,490,8640,490C8480,490,8320,490,8160,490C8000,490,7840,490,7680,490C7520,490,7360,490,7200,490C7040,490,6880,490,6720,490C6560,490,6400,490,6240,490C6080,490,5920,490,5760,490C5600,490,5440,490,5280,490C5120,490,4960,490,4800,490C4640,490,4480,490,4320,490C4160,490,4000,490,3840,490C3680,490,3520,490,3360,490C3200,490,3040,490,2880,490C2720,490,2560,490,2400,490C2240,490,2080,490,1920,490C1760,490,1600,490,1440,490C1280,490,1120,490,960,490C800,490,640,490,480,490C320,490,160,490,80,490L0,490Z"/></svg>